<?xml version="1.0" encoding="UTF-8"?>
<svg width="938px" height="738px" viewBox="0 0 938 738" version="1.1" xmlns="http://www.w3.org/2000/svg" xmlns:xlink="http://www.w3.org/1999/xlink">
    <!-- Generator: Sketch 53.2 (72643) - https://sketchapp.com -->
    <title>ads-illustration</title>
    <desc>Created with Sketch.</desc>
    <defs>
        <polygon id="path-1" points="9.68266237e-06 0.262919079 855.975 0.262919079 855.975 106.999993 9.68266237e-06 106.999993"></polygon>
        <polygon id="path-3" points="0.338086475 0.789 183.366543 0.789 183.366543 170.727888 0.338086475 170.727888"></polygon>
    </defs>
    <g id="ads-illustration" stroke="none" stroke-width="1" fill="none" fill-rule="evenodd">
        <g id="Group-118" transform="translate(38.000000, 46.000000)">
            <g id="Group-3" transform="translate(0.000000, 539.212000)">
                <mask id="mask-2" fill="white">
                    <use xlink:href="#path-1"></use>
                </mask>
                <g id="Clip-2"></g>
                <path d="M392.7007,0.273 C367.6337,0.357 342.5667,1.041 317.5437,4.199 C308.1087,5.39 298.8717,8.009 289.4157,9.066 C270.5267,11.175 251.9767,15.112 233.0207,16.928 C217.7567,18.39 202.4277,19.253 187.2077,21.109 C172.9377,22.848 157.1397,22.447 142.9797,19.573 C132.4967,17.446 121.9667,16.248 111.6597,12.831 C100.1297,9.008 87.6047,6.275 75.5917,6.374 C58.4617,6.514 41.7797,6.531 25.3857,13.28 C19.6307,15.649 12.5867,19.544 8.2167,24.516 C-1.7873,35.898 -3.1413,64.299 6.8467,76.104 C23.6707,95.973 59.5767,103.769 83.1587,104.137 C108.9997,104.541 134.1037,102.364 159.9817,101.084 C184.0287,99.895 208.0157,98.203 232.1027,98.262 C281.2967,98.383 330.4977,98.262 379.6037,94.533 C425.7407,91.03 471.9927,92.233 518.2297,92.233 C565.6437,92.233 612.7377,92.656 659.8097,99.806 C680.3197,102.921 701.2137,104.012 721.8267,106.195 C740.2877,108.149 758.0277,106.156 776.4147,104.349 C791.8547,102.833 807.1937,98.333 821.2197,90.726 C832.3227,84.706 852.1167,66.001 855.5217,51.629 C865.0667,11.338 720.9937,12.307 698.8727,12.398 C674.1267,12.5 649.1847,13.423 624.4577,12.352 C614.0567,11.902 603.8087,9.595 593.6577,7.068 C583.5457,4.55 573.3587,5.19 563.1047,4.132 C520.3447,-0.281 477.4897,0.364 434.5927,0.364 C420.6337,0.364 406.6667,0.225 392.7007,0.273" id="Fill-1" fill="#EED5D5" mask="url(#mask-2)"></path>
            </g>
            <polygon id="Fill-4" fill="#EFBFA5" points="248.9722 552.941 248.9722 587.922 261.5432 587.922 267.5552 548.568"></polygon>
            <polygon id="Fill-5" fill="#EFBFA5" points="320.4883 546.0289 327.3003 590.0499 342.0443 589.4179 340.1473 545.1849"></polygon>
            <polygon id="Fill-6" fill="#8CABEF" points="242.9595 425.0407 242.9595 536.5437 242.9595 555.6737 269.1955 554.5807 283.9535 477.5127 301.4785 406.1257"></polygon>
            <polygon id="Fill-7" fill="#8CABEF" points="342.2422 400.8873 345.5132 548.6553 315.9972 548.5743 309.5802 497.1773 282.5912 410.0803"></polygon>
            <g id="Group-117" transform="translate(6.000000, 0.212000)">
                <path d="M260.5787,232.7481 C260.3537,232.8311 260.1307,232.9161 259.9087,233.0021 C249.2887,237.1341 240.9497,255.6711 236.1707,266.5641 C223.8347,294.6841 218.4457,323.9851 217.4657,355.0601 C216.9387,371.7921 217.1367,388.5521 217.6667,405.2951 C217.8137,409.9211 221.8247,451.3341 219.7737,452.3241 C240.8087,442.1781 262.1977,432.5961 284.5897,426.8051 C306.9817,421.0141 330.5387,419.1111 353.1577,424.3861 C346.2787,371.8171 336.3087,318.3301 321.9297,267.5351 C320.2097,261.4591 319.0607,254.9831 316.5117,249.2261 C313.5757,242.5941 309.1697,240.6361 303.6027,236.7161 C301.6957,235.3731 299.7747,234.0221 297.6777,233.0851 C286.6267,228.1491 271.7657,228.6021 260.5787,232.7481" id="Fill-8" fill="#3B3387"></path>
                <path d="M339.73,400.0542 C311.725,404.3302 265.124,407.5952 237.119,411.8712 C235.61,361.2372 240.596,302.7622 252.813,253.7622 C255.029,244.8742 258.302,235.2802 266.067,230.7532 C274.388,225.9032 292.034,226.5612 297.111,235.9832 C304.54,249.7672 306.006,271.7102 309.321,287.0512 C316.819,321.7592 335.085,364.8402 339.73,400.0542" id="Fill-10" fill="#EFF5F1"></path>
                <path d="M295.1622,194.7828 C291.0022,174.1748 265.2392,178.0538 258.0372,194.8678 C253.2932,205.9448 260.1772,222.1848 271.3282,226.8928 C270.6462,229.7098 270.0822,232.5548 269.6442,235.4198 C272.8012,235.5968 275.9592,235.7738 279.1162,235.9498 C280.0932,236.0048 281.2412,235.9848 281.8252,235.1998 C282.1792,234.7248 282.2182,234.0928 282.2432,233.5008 C282.3292,231.5038 282.4142,229.5078 282.4992,227.5118 C282.7392,227.4408 282.9792,227.3658 283.2202,227.2838 C289.1992,225.2408 293.4792,219.6328 295.2042,213.5538 C296.9292,207.4768 296.4122,200.9758 295.1622,194.7828" id="Fill-12" fill="#EFBFA5"></path>
                <path d="M292.5718,200.4205 C295.8328,206.6275 293.8158,214.1455 292.0168,220.5835 C290.4228,226.2915 290.1378,229.9235 296.6248,230.3315 C300.2808,230.5615 306.7798,231.0435 309.4278,227.8385 C311.4328,225.4115 309.0848,219.3165 307.5358,216.9955 C306.3528,215.2235 303.8928,214.6275 302.7578,212.8245 C302.2898,212.0815 302.0958,211.2015 301.9418,210.3375 C301.3128,206.8055 301.2218,203.1795 301.6728,199.6205 C301.9788,197.2045 302.5338,194.7895 302.3478,192.3605 C302.0778,188.8395 298.9598,185.1945 297.1478,182.2155 C293.7748,176.6725 284.1148,170.0775 277.8818,175.8835 C276.4618,177.2055 275.8278,179.1505 275.3388,181.0275 C275.0468,182.1485 274.7858,183.3115 274.9588,184.4565 C275.6518,189.0225 279.9388,189.1105 283.1678,190.8085 C287.1498,192.9035 290.4908,196.4595 292.5718,200.4205" id="Fill-14" fill="#353A85"></path>
                <path d="M259.6602,206.9073 C259.9282,210.1773 262.2082,213.4873 260.8782,216.4863 C260.2862,217.8223 259.0792,218.7623 258.1082,219.8543 C255.4542,222.8363 254.5522,227.2723 255.8302,231.0543 C249.3272,231.8633 242.8252,232.6723 236.3232,233.4803 C235.3422,233.6023 234.3112,233.7193 233.3952,233.3493 C231.4352,232.5613 230.9312,230.0723 230.7062,227.9723 C230.2642,223.8373 229.8792,219.3953 231.9052,215.7633 C232.8452,214.0793 234.2482,212.6903 235.1822,211.0033 C239.6742,202.8893 232.0632,191.1803 237.9772,184.0373 C240.6172,180.8503 245.0492,179.9203 248.5672,177.7403 C254.7012,173.9403 257.9072,166.4133 264.2742,163.0193 C276.2992,156.6083 291.1772,170.1153 285.4872,182.6953 C280.8472,192.9553 258.5812,193.7403 259.6602,206.9073" id="Fill-16" fill="#353A85"></path>
                <path d="M261.3697,234.2608 C261.3697,234.2608 252.4607,359.9898 271.9827,384.7808 C291.5047,409.5718 299.8547,418.9128 299.8547,418.9128 L220.0157,452.1578 C220.0157,452.1578 199.7917,278.8918 261.3697,234.2608" id="Fill-18" fill="#3B3387"></path>
                <polygon id="Fill-20" fill="#353A85" points="242.9722 584.4302 229.8542 597.5482 236.4132 604.1082 256.0902 592.0822 256.0902 583.4852"></polygon>
                <polygon id="Fill-22" fill="#353A85" points="320.1251 582.2427 335.8331 584.2917 350.0481 596.8107 340.9051 600.4857 320.3961 594.2537"></polygon>
                <polygon id="Fill-24" fill="#292949" points="738.3799 584.4595 738.5959 586.7025 739.3119 594.1475 754.3819 600.6035 760.8439 592.6645 752.9509 585.7145 752.2239 585.4025 752.1359 586.3285"></polygon>
                <path d="M737.6143,584.356 L738.3803,584.46 L737.8813,579.258 L752.2233,585.403 L764.1543,459.736 L765.6233,453.799 C754.3473,453.964 740.9493,454.133 727.4483,454.24 L737.6143,584.356 Z" id="Fill-26" fill="#BABCBE"></path>
                <polygon id="Fill-28" fill="#909497" points="738.3799 584.4595 752.1359 586.3285 752.2239 585.4025 737.8809 579.2585"></polygon>
                <path d="M677.3497,454.1734 L680.1237,487.0684 L707.9467,572.3504 L721.5397,570.5434 L721.7617,572.2104 L721.8387,572.1994 L711.8217,484.3114 L720.3997,454.2884 C704.6207,454.3864 689.1887,454.3824 677.3497,454.1734" id="Fill-30" fill="#BABCBE"></path>
                <polygon id="Fill-32" fill="#292949" points="707.9464 572.3501 707.0914 572.4631 700.8734 580.9971 709.1044 587.6121 722.5474 578.1171 721.7614 572.2101 708.4774 573.9761"></polygon>
                <polygon id="Fill-34" fill="#3E3D3B" points="707.9464 572.3501 708.4774 573.9761 721.7614 572.2101 721.5404 570.5431"></polygon>
                <path d="M771.6309,262.9122 C773.3779,271.1422 779.8919,277.1792 786.2509,282.8932 C781.5589,270.8592 776.6899,260.2512 772.0079,251.0912 C771.1679,255.0272 770.7919,258.9592 771.6309,262.9122" id="Fill-36" fill="#E0E0E1"></path>
                <path d="M796.378,319.1089 C794.76,320.7869 792.859,322.2129 790.812,323.3079 C785.597,326.0959 779.55,326.9729 773.636,326.9639 C768.902,326.9569 764.103,326.4189 759.479,327.4319 C754.856,328.4449 750.275,331.4569 749.107,336.0439 C748.462,338.5749 748.672,341.7549 746.484,343.1819 C745.458,343.8509 744.162,343.9079 742.937,343.9429 C739.191,344.0489 734.939,343.9529 732.423,341.1749 C728.53,336.8769 730.804,328.2539 725.545,325.8089 C724.004,325.0929 722.225,325.2039 720.549,324.9209 C713.433,323.7159 709.952,315.6659 710.636,308.2749 C710.778,306.7439 711.094,305.2399 711.599,303.8329 C714.538,295.6299 721.353,289.5429 726.512,282.5209 C736.586,268.8129 743.397,250.4969 737.202,234.2729 C736.619,232.7469 735.966,231.2139 735.56,229.6389 C735.336,228.7729 735.185,227.8949 735.168,226.9959 C735.078,222.1579 738.678,218.1739 741.006,213.9309 C741.223,213.5349 741.428,213.1169 741.62,212.6789 C742.09,211.6089 742.482,210.4159 742.807,209.1349 L741.794,209.6179 C739.487,211.5829 736.803,212.9359 733.829,213.4129 L705.922,226.7129 L694.727,272.2829 L687.049,303.5369 L686.936,303.9979 L658.073,453.3029 C661.511,453.7409 668.405,454.0159 677.35,454.1729 C689.189,454.3819 704.62,454.3859 720.399,454.2889 C722.745,454.2739 725.098,454.2579 727.448,454.2389 C740.949,454.1329 754.348,453.9639 765.623,453.7989 C782.908,453.5469 795.2,453.3029 795.2,453.3029 C795.2,453.3029 805.703,376.1399 796.378,319.1089" id="Fill-38" fill="#474EBB"></path>
                <path d="M733.8292,213.4131 C736.8032,212.9361 739.4882,211.5821 741.7942,209.6181 L733.8292,213.4131 Z" id="Fill-40" fill="#E1CFB5"></path>
                <path d="M735.1514,172.6343 C732.1724,170.0083 728.7674,169.5313 724.9704,169.5023 C723.1764,169.4893 722.5774,169.9533 721.6514,169.7903 C721.2364,169.7173 720.7554,169.5183 720.0694,169.0923 C718.7114,168.2453 717.4994,166.0313 716.8624,164.2273 C713.3414,166.4533 710.7804,170.4753 710.0744,176.5993 C709.3064,183.2573 709.3184,190.2813 711.6004,196.9423 C713.8824,203.6043 718.7524,209.8683 725.0704,212.3403 C725.4384,212.4843 725.8034,212.6113 726.1674,212.7293 C728.8744,213.6123 731.4444,213.7953 733.8294,213.4133 L741.7944,209.6173 C742.1894,209.2803 742.5744,208.9253 742.9474,208.5533 C745.5644,197.2213 742.7284,179.3153 735.1514,172.6343" id="Fill-42" fill="#F4C7B3"></path>
                <path d="M734.9854,164.6856 C735.9644,165.1786 736.9274,165.7376 737.8674,166.3596 C736.9274,165.7376 735.9644,165.1786 734.9854,164.6856 M788.8684,285.2516 C788.0074,284.4686 787.1314,283.6846 786.2514,282.8936 C786.8304,284.3786 787.4064,285.8836 787.9794,287.4106 C788.5524,288.9376 789.1224,290.4866 789.6874,292.0586 C790.0514,293.0706 790.4044,294.1006 790.7464,295.1446 C790.4044,294.1006 790.0514,293.0706 789.6874,292.0586 C789.1224,290.4866 788.5524,288.9376 787.9794,287.4106 C787.4064,285.8836 786.8304,284.3786 786.2514,282.8936 C779.8914,277.1786 773.3784,271.1426 771.6314,262.9126 C770.7924,258.9586 771.1684,255.0276 772.0074,251.0916 C773.3584,244.7656 775.9134,238.4276 776.5804,231.9676 C777.7224,220.9036 776.8214,204.9976 774.1194,194.1736 C771.2314,182.5996 764.9334,172.1276 757.3794,163.0066 C748.2144,151.9426 731.1784,139.5566 719.1134,154.0456 C718.9734,154.2116 718.8394,154.3826 718.7104,154.5566 C717.3984,153.8996 716.0254,153.3686 714.6104,152.9796 C706.2754,160.0006 704.1314,171.3016 705.0054,181.6866 C705.8814,192.0926 711.1324,203.8816 708.1694,214.2036 C707.8854,215.1896 707.5164,216.1766 707.5244,217.2026 C707.5324,218.2296 708.0244,219.3376 708.9814,219.7096 C709.5624,219.9356 710.2124,219.8596 710.8304,219.7796 C715.9304,219.1216 721.4814,218.2376 724.9414,214.4316 C725.4564,213.8646 725.8524,213.2976 726.1674,212.7296 C725.8034,212.6106 725.4384,212.4846 725.0704,212.3406 C718.7534,209.8686 713.8814,203.6046 711.6004,196.9426 C709.3184,190.2816 709.3064,183.2576 710.0744,176.5996 C710.7804,170.4756 713.3414,166.4536 716.8624,164.2276 C717.4994,166.0316 718.7114,168.2456 720.0704,169.0916 C720.7554,169.5186 721.2354,169.7176 721.6514,169.7896 C722.5774,169.9536 723.1764,169.4896 724.9704,169.5026 C728.7674,169.5316 732.1724,170.0076 735.1514,172.6346 C742.7284,179.3146 745.5634,197.2216 742.9474,208.5536 C750.0914,201.4276 752.9564,188.1896 748.2534,178.2966 C747.9854,177.7346 747.7024,177.1846 747.4024,176.6466 C747.7024,177.1846 747.9854,177.7346 748.2534,178.2966 C752.9564,188.1896 750.0914,201.4276 742.9474,208.5536 C742.9024,208.7486 742.8554,208.9426 742.8064,209.1346 C742.4834,210.4156 742.0904,211.6096 741.6204,212.6796 C741.4274,213.1176 741.2224,213.5346 741.0064,213.9306 C738.6774,218.1736 735.0784,222.1576 735.1684,226.9966 C735.1844,227.8946 735.3364,228.7726 735.5594,229.6396 C735.9654,231.2136 736.6194,232.7466 737.2024,234.2726 C743.3964,250.4966 736.5864,268.8126 726.5114,282.5206 C721.3524,289.5426 714.5384,295.6296 711.5984,303.8326 C711.0934,305.2396 710.7774,306.7436 710.6354,308.2746 C709.9524,315.6656 713.4324,323.7166 720.5484,324.9206 C722.2244,325.2036 724.0044,325.0936 725.5454,325.8096 C730.8034,328.2536 728.5304,336.8766 732.4224,341.1756 C734.9374,343.9526 739.1914,344.0496 742.9364,343.9426 C744.1624,343.9076 745.4574,343.8516 746.4844,343.1826 C748.6734,341.7546 748.4624,338.5746 749.1074,336.0436 C750.2764,331.4566 754.8554,328.4446 759.4794,327.4326 C764.1024,326.4186 768.9024,326.9566 773.6354,326.9646 C779.5494,326.9736 785.5964,326.0966 790.8114,323.3086 C792.8584,322.2136 794.7584,320.7866 796.3784,319.1086 C796.1774,317.8886 795.9694,316.6756 795.7514,315.4746 C795.9694,316.6756 796.1784,317.8886 796.3784,319.1086 C798.8824,316.5136 800.7084,313.3116 801.3114,309.7706 C802.9214,300.3306 795.9524,291.6966 788.8684,285.2516" id="Fill-44" fill="#292949"></path>
                <polygon id="Fill-46" fill="#F4C7B3" points="629.5616 192.6226 625.5856 185.4316 627.7016 178.5006 626.4596 177.3066 624.9276 178.7746 625.0366 172.5196 621.8666 168.5536 615.1196 168.9166 609.8526 173.4986 610.9236 180.1596 615.9906 186.3796 621.0056 196.4596"></polygon>
                <polygon id="Fill-48" fill="#474EBB" points="628.794 186.8912 616.772 189.9562 642.772 252.5572 701.333 262.8782 709.618 228.7512 657.369 222.4982"></polygon>
                <polygon id="Fill-50" fill="#353A85" points="162.1104 406.8716 157.0654 475.8986 140.3624 590.1796 127.5204 590.1796 119.4084 484.7306 115.8164 399.4176"></polygon>
                <polygon id="Fill-52" fill="#292949" points="127.5943 588.6499 127.5943 595.5939 141.4823 602.5389 148.4263 595.5939 141.4823 588.6499"></polygon>
                <polygon id="Fill-54" fill="#353A85" points="71.1378 390.604 76.0188 487.361 87.1958 598.438 100.3498 598.438 111.0408 493.198 126.6588 382.429"></polygon>
                <polygon id="Fill-56" fill="#292949" points="100.274 596.8726 100.274 603.9846 86.049 611.0976 78.937 603.9846 86.049 596.8726"></polygon>
                <path d="M115.9708,235.4683 C111.4838,235.0293 106.9958,234.5913 102.5088,234.1523 C102.4598,230.5563 102.6998,226.9573 103.2238,223.4003 C99.4818,222.0903 95.1588,220.1233 94.5008,216.2143 C94.2938,214.9833 94.5058,213.7243 94.7168,212.4933 C95.5888,207.4063 96.4608,202.3183 97.3328,197.2313 C97.6338,195.4713 97.9548,193.6603 98.9098,192.1513 C100.5848,189.5043 103.8418,188.3433 106.9278,187.8023 C114.8018,186.4253 123.3868,188.1193 129.5008,193.2703 C131.1278,194.6403 132.5998,196.2893 133.3188,198.2913 C134.4278,201.3793 133.6068,204.7873 132.7778,207.9613 C132.0118,210.8903 131.2478,213.8203 130.4828,216.7503 C129.6028,220.1193 128.3308,223.9503 125.0868,225.2183 C123.3648,225.8913 121.3298,225.6973 119.7708,226.6923 C117.0218,228.4463 117.3988,232.5363 115.9708,235.4683" id="Fill-58" fill="#F4C7B3"></path>
                <path d="M147.4805,183.4561 C147.8765,179.2971 148.0865,175.8691 147.2255,171.7981 C146.7215,169.4141 143.6735,161.9071 144.6005,159.7881 C142.8665,163.4621 138.1895,164.4761 134.1475,164.8801 C119.0005,166.3921 102.0985,162.6471 88.1715,170.4211 C85.6295,171.8411 83.6015,174.0561 82.0225,176.5031 C76.5505,184.9791 76.5355,196.6571 81.9865,205.1481 C83.2095,207.0531 84.6715,208.7931 86.2095,210.4551 C89.3895,213.8951 93.1945,218.1441 97.5645,219.4151 C97.6645,215.5061 94.0865,203.1871 97.0855,199.9781 C101.2935,195.4771 108.9465,196.3531 114.4155,197.1321 C121.4375,198.1321 128.2625,198.0691 135.3495,197.2431 C137.6295,196.9771 139.9455,196.7031 142.0635,195.8181 C147.1345,193.6991 146.9565,188.9891 147.4115,184.1791 C147.4335,183.9471 147.4575,183.7061 147.4805,183.4561" id="Fill-60" fill="#292949"></path>
                <polygon id="Fill-62" fill="#F4C7B3" points="21.1495 329.4029 20.1885 337.8639 24.9585 343.6649 24.2425 345.2999 22.1935 344.5009 24.7745 350.4479 23.3075 355.5019 16.7015 357.8249 9.8435 355.5209 8.2325 348.7169 10.6235 340.7549 11.4365 329.1149"></polygon>
                <polygon id="Fill-64" fill="#5D66D3" points="22.6832 335.1959 9.9552 337.0199 10.0742 266.7709 84.0992 233.8069 83.7572 272.0339 39.7002 288.3899"></polygon>
                <polygon id="Fill-66" fill="#F4C7B3" points="175.0318 147.1978 175.4678 138.6938 170.3498 133.1978 170.9638 131.5218 173.0568 132.1938 170.1148 126.4158 171.2668 121.2818 177.7168 118.5558 184.7038 120.4308 186.7308 127.1218 184.8368 135.2188 184.7438 146.8858"></polygon>
                <polygon id="Fill-68" fill="#5D66D3" points="173.1431 141.5108 185.7341 138.9038 186.7311 187.3438 181.7841 224.7818 149.5891 272.0338 123.2291 233.8978 153.8341 211.4058"></polygon>
                <polygon id="Fill-70" fill="#5D66D3" points="126.6304 232.0059 84.0984 233.8069 62.6294 315.5259 44.8994 428.8129 181.7834 432.1409 149.5884 272.0339"></polygon>
                <polygon id="Fill-72" fill="#292949" points="586.671 580.2085 587.717 588.3425 572.494 598.5685 563.314 591.4795 570.402 582.3005 585.625 572.0735"></polygon>
                <polygon id="Fill-74" fill="#292949" points="587.1856 577.4781 575.4466 473.7381 589.5716 357.6001 586.3946 332.8961 523.3046 330.4991 521.0286 370.7081 531.6196 473.8971 571.4646 582.7791"></polygon>
                <polygon id="Fill-76" fill="#BABCBE" points="517.3819 215.7159 485.6479 224.3599 448.9459 289.3929 466.3309 305.4899 490.7989 276.5149"></polygon>
                <polygon id="Fill-78" fill="#292949" points="477.0118 342.1246 476.8458 446.8116 497.9168 581.5786 513.0848 581.4286 521.4218 456.7996 540.9348 332.0606"></polygon>
                <polygon id="Fill-80" fill="#292949" points="513.0616 587.8248 496.7416 596.1888 488.4586 588.0698 496.5776 579.7878 512.9796 579.6238"></polygon>
                <path d="M596.0997,377.7291 C595.9547,373.1931 595.7037,369.4071 595.6667,368.0541 C595.3417,355.8851 594.2577,343.7431 592.7347,331.6601 C591.3697,320.8321 589.6457,293.9501 587.7927,283.1881 C586.2627,274.3031 580.9307,252.1251 577.0787,243.8841 C567.4987,223.3891 570.4587,221.4961 528.3777,215.4101 C509.9347,212.7431 505.5757,224.2371 490.4977,237.4541 C489.0107,238.7571 489.0927,246.5201 488.7467,248.5751 C488.1397,252.1941 487.4897,255.8081 486.7427,259.4041 C486.1567,262.2311 485.5087,265.0491 484.7827,267.8491 L484.7847,267.8481 C484.7847,267.8481 472.1257,325.4511 463.7557,337.6841 C455.3847,349.9181 438.0917,367.0221 467.0197,377.4641 C472.1457,379.1221 477.3037,380.6991 482.6407,381.5421 C482.6407,381.5421 506.2977,378.9131 518.4647,379.0031 C529.6697,379.0861 540.9217,380.2211 551.9387,382.1211 C559.3047,383.3521 566.8227,385.1411 573.4117,388.5831 C579.6987,391.8671 584.2357,396.6981 590.6147,400.0981 C591.2187,400.4201 591.8817,400.7531 592.5687,400.6591 C596.2327,400.1511 596.4047,387.2781 596.0997,377.7291" id="Fill-82" fill="#BABCBE"></path>
                <polygon id="Fill-84" fill="#D6C7AC" points="506.5645 308.0328 521.6115 311.7938 523.4995 305.4318 513.7645 300.5758 516.0535 297.9818 502.7855 296.3318 499.9305 302.6798"></polygon>
                <polygon id="Fill-86" fill="#454446" points="502.9942 308.8863 506.9092 293.0843 469.5922 279.3163 448.9462 289.3923 455.3062 308.7533"></polygon>
                <path d="M528.3292,221.1895 C530.4522,222.2385 535.4642,222.6145 540.6912,220.5665 C541.7452,220.1545 542.4562,219.1385 542.4412,218.0065 C542.3992,214.8315 542.1442,211.6595 541.6772,208.5185 C545.5992,207.1395 550.1292,205.0725 550.8122,200.9725 C551.0272,199.6815 550.8052,198.3615 550.5812,197.0715 C549.6602,191.7385 548.7382,186.4055 547.8162,181.0725 C547.4982,179.2285 547.1592,177.3295 546.1562,175.7495 C544.3952,172.9765 540.9792,171.7635 537.7442,171.2015 C529.4852,169.7685 520.4872,171.5575 514.0842,176.9655 C512.3802,178.4055 510.8392,180.1355 510.0882,182.2355 C508.9302,185.4745 509.7962,189.0465 510.6692,192.3735 C511.4752,195.4435 512.2812,198.5145 513.0882,201.5855 C514.0162,205.1165 515.3542,209.1315 518.7572,210.4555 C520.5632,211.1585 522.6962,210.9535 524.3322,211.9935 C527.2172,213.8285 526.8282,218.1175 528.3292,221.1895" id="Fill-88" fill="#F4C7B3"></path>
                <path d="M480.668,168.0059 C479.856,166.6739 478.982,165.3889 478.005,164.1839 C475.888,161.5729 473.278,159.3349 471.574,156.4379 C469.87,153.5399 469.271,149.6109 471.315,146.9439 C472.635,145.2209 474.776,144.3599 476.857,143.7479 C483.715,141.7299 491.115,141.5929 498.043,143.3569 C504.642,145.0359 510.547,147.8179 517.189,145.3369 C523.43,143.0059 527.938,143.9559 534.46,146.2829 C541.519,148.8009 550.994,149.3949 557.383,152.9509 C560.051,154.4359 562.18,156.7559 563.84,159.3189 C569.589,168.1979 569.62,180.4419 563.918,189.3519 C562.638,191.3509 561.107,193.1769 559.498,194.9219 C556.168,198.5339 552.185,202.9939 547.605,204.3319 C547.495,200.2349 551.228,187.3129 548.081,183.9539 C543.086,178.6249 531.794,180.4839 525.599,181.7959 C518.84,183.2279 512.816,188.0129 506.116,189.0359 C501.295,189.7719 495.143,187.4069 491.042,184.9149 C485.983,181.8379 483.628,172.8669 480.668,168.0059" id="Fill-90" fill="#292949"></path>
                <polygon id="Fill-92" fill="#BABCBE" points="563.3135 223.2867 589.5715 246.2937 619.1415 308.8867 575.5155 309.1547"></polygon>
                <path d="M507.7842,229.1299 C474.2892,228.0759 433.2022,247.9729 424.6042,276.9559 C413.1682,248.9719 361.1152,233.9949 327.8902,238.3759 C240.2152,249.9359 215.3092,349.5939 255.9262,413.7529 C277.7852,448.2839 308.2032,477.9119 341.0902,504.2379 C368.6292,526.2839 439.1282,572.4379 439.3272,572.2589 C439.5432,572.4179 505.1022,519.4799 530.3122,494.8039 C560.4182,465.3379 587.7372,432.8309 606.0552,396.2959 C640.0882,328.4169 596.1762,231.9119 507.7842,229.1299" id="Fill-94" fill="#D67086"></path>
                <path d="M779.0801,246.8004 C760.2561,246.2084 737.1641,257.3904 732.3331,273.6784 C725.9051,257.9514 696.6511,249.5344 677.9791,251.9964 C628.7051,258.4934 614.7081,314.5014 637.5341,350.5594 C649.8201,369.9654 666.9151,386.6164 685.3971,401.4124 C700.8741,413.8024 740.4951,439.7404 740.6071,439.6404 C740.7281,439.7294 777.5721,409.9784 791.7401,396.1114 C808.6601,379.5504 824.0141,361.2804 834.3081,340.7484 C853.4341,302.6004 828.7561,248.3644 779.0801,246.8004" id="Fill-96" fill="#EED5D5"></path>
                <path d="M130.0845,256.546 C115.8495,252.732 96.2615,257.126 89.6705,268.671 C87.5835,255.543 66.8015,243.905 52.1365,242.445 C13.4385,238.592 -7.2285,278.76 3.7195,310.306 C9.6125,327.285 19.6615,343.024 31.0985,357.596 C40.6755,369.799 66.2255,396.637 66.3285,396.581 C66.4055,396.67 99.7885,380.587 113.0585,372.553 C128.9055,362.96 143.8655,351.785 155.3765,337.982 C176.7615,312.337 167.6485,266.61 130.0845,256.546" id="Fill-98" fill="#D67086"></path>
                <path d="M654.4092,54.6412 C641.4692,55.2322 626.2262,64.1232 623.7762,75.5482 C618.5362,65.1042 598.0302,60.8822 585.3562,63.5592 C551.9122,70.6242 545.2802,109.7712 562.8432,133.2882 C572.2952,145.9452 584.8992,156.4572 598.3562,165.6242 C609.6262,173.3012 638.1692,188.9892 638.2402,188.9142 C638.3282,188.9692 662.0172,166.6162 670.9982,156.3562 C681.7232,144.1042 691.2842,130.7642 697.2562,116.1392 C708.3512,88.9662 688.5552,53.0822 654.4092,54.6412" id="Fill-100" fill="#D67086"></path>
                <g id="Group-104" transform="translate(142.000000, 0.000000)">
                    <mask id="mask-4" fill="white">
                        <use xlink:href="#path-3"></use>
                    </mask>
                    <g id="Clip-103"></g>
                    <path d="M142.3961,15.6085 C126.6611,11.5775 105.1241,16.6585 98.0001,29.4645 C95.5401,15.0185 72.4931,2.4445 56.3121,1.0135 C13.6131,-2.7625 -8.6789,41.7605 3.7721,76.3975 C10.4731,95.0395 21.7401,112.2645 34.5221,128.1875 C45.2271,141.5205 73.7131,170.7905 73.8271,170.7275 C73.9121,170.8245 110.5111,152.6925 125.0401,143.6765 C142.3901,132.9105 158.7431,120.4115 171.2611,105.0585 C194.5211,76.5325 183.9211,26.2455 142.3961,15.6085" id="Fill-102" fill="#EED5D5" mask="url(#mask-4)"></path>
                </g>
                <polygon id="Fill-105" fill="#3B3387" points="257.4034 234.2608 233.1334 247.7368 188.8604 323.7118 194.3264 338.4688 261.5554 369.0778 270.6354 355.4098 221.6804 319.8288 256.0904 271.7858"></polygon>
                <polygon id="Fill-107" fill="#EFBFA5" points="269.189 357.5865 282.873 363.6115 285.059 379.4625 276.86 381.6485 264.378 364.8295"></polygon>
                <polygon id="Fill-109" fill="#F4C7B3" points="779.0801 246.8004 790.0231 239.6964 801.5451 245.7174 800.2371 256.0744 786.2511 256.0744"></polygon>
                <polygon id="Fill-111" fill="#F4C7B3" points="598.6192 310.7086 609.5632 303.6046 621.0852 309.6256 619.7772 319.9816 605.7912 319.9816"></polygon>
                <polygon id="Fill-113" fill="#F4C7B3" points="465.6124 232.5142 476.5564 225.4102 488.0784 231.4312 486.7704 241.7882 472.7844 241.7882"></polygon>
                <polygon id="Fill-115" fill="#EFBFA5" points="312.9947 240.7027 323.9387 233.5987 335.4597 239.6197 334.1527 249.9767 320.1657 249.9767"></polygon>
            </g>
        </g>
    </g>
</svg>