<?xml version="1.0" encoding="UTF-8"?>
<svg width="143px" height="49px" viewBox="0 0 143 49" version="1.1" xmlns="http://www.w3.org/2000/svg" xmlns:xlink="http://www.w3.org/1999/xlink">
    <!-- Generator: Sketch 53.2 (72643) - https://sketchapp.com -->
    <title>AppLogo</title>
    <desc>Created with Sketch.</desc>
    <g id="AppLogo" stroke="none" stroke-width="1" fill="none" fill-rule="evenodd">
        <path d="M29.544,33.74 L31.632,33.74 L31.632,35 L20.796,35 L20.796,33.74 L22.884,33.74 L23.244,33.38 L20.724,27.08 L12.588,27.08 L9.996,33.38 L10.356,33.74 L13.38,33.74 L13.38,35 L6,35 L6,33.74 L8.088,33.74 L17.52,10.88 L20.22,10.88 L29.544,33.74 Z M13.092,25.82 L20.22,25.82 L16.8,17.18 L16.62,17.18 L13.092,25.82 Z M44.844,17.72 L51.648,17.72 L51.648,18.98 L49.488,18.98 L42.936,35 L40.596,35 L33.072,18.98 L31.272,18.98 L31.272,17.72 L41.172,17.72 L41.172,18.98 L39.372,18.98 L39.012,19.34 L43.476,29.24 L43.656,29.24 L47.724,19.34 L47.364,18.98 L44.844,18.98 L44.844,17.72 Z M61.656,17.36 C66.984,17.36 70.836,20.672 70.836,26.36 C70.836,32.048 66.984,35.36 61.656,35.36 C56.328,35.36 52.476,32.048 52.476,26.36 C52.476,20.672 56.328,17.36 61.656,17.36 Z M61.836,34.1 C64.32,34.1 65.076,30.428 65.076,26.936 C65.076,21.356 63.168,18.62 61.476,18.62 C58.992,18.62 58.236,22.292 58.236,25.784 C58.236,31.364 60.144,34.1 61.836,34.1 Z M77.892,15.56 C76.236,15.56 74.832,14.156 74.832,12.5 C74.832,10.844 76.236,9.44 77.892,9.44 C79.548,9.44 80.952,10.844 80.952,12.5 C80.952,14.156 79.548,15.56 77.892,15.56 Z M80.916,33.74 L82.716,33.74 L82.716,35 L73.176,35 L73.176,33.74 L74.976,33.74 L75.336,33.38 L75.336,19.34 L74.976,18.98 L73.176,18.98 L73.176,17.72 C75.048,17.72 78.324,17.684 80.196,17.36 L80.556,17.72 L80.556,33.38 L80.916,33.74 Z M103.956,33.74 L105.756,33.74 L105.756,35 C103.884,35 100.608,35.036 98.736,35.36 L98.376,35 L98.376,32.12 C97.476,33.812 95.496,35.36 93.012,35.36 C88.332,35.36 85.056,31.976 85.056,26.432 C85.056,20.888 88.332,17.36 93.012,17.36 C95.676,17.36 97.476,18.728 98.376,20.6 L98.376,10.34 L98.016,9.98 L96.216,9.98 L96.216,8.72 C98.088,8.72 101.364,8.684 103.236,8.36 L103.596,8.72 L103.596,33.38 L103.956,33.74 Z M98.376,29.42 L98.376,23.3 C97.044,20.24 95.496,19.34 94.236,19.34 C92.22,19.34 90.816,21.284 90.816,26 C90.816,30.716 92.22,33.38 94.236,33.38 C95.496,33.38 97.044,32.48 98.376,29.42 Z M115.08,33.74 L116.88,33.74 L116.88,35 L107.34,35 L107.34,33.74 L109.14,33.74 L109.5,33.38 L109.5,10.34 L109.14,9.98 L107.34,9.98 L107.34,8.72 C109.212,8.72 112.488,8.684 114.36,8.36 L114.72,8.72 L114.72,33.38 L115.08,33.74 Z M130.704,17.72 L137.508,17.72 L137.508,18.98 L135.348,18.98 L128.904,35 C127.032,39.68 125.484,44.36 121.56,44.36 C118.572,44.36 117.744,42.596 117.744,41.048 C117.744,39.788 118.824,38.708 120.084,38.708 C121.38,38.708 122.424,39.788 122.424,41.048 C122.424,41.948 121.92,42.704 121.128,43.028 C121.308,43.064 121.488,43.1 121.668,43.1 C124.116,43.1 125.412,40.004 127.032,35.936 L118.932,18.98 L117.132,18.98 L117.132,17.72 L127.032,17.72 L127.032,18.98 L125.232,18.98 L124.872,19.34 L129.444,29.276 L129.624,29.276 L133.584,19.34 L133.224,18.98 L130.704,18.98 L130.704,17.72 Z" id="Avoidly" fill="#FFFFFF" fill-rule="nonzero"></path>
    </g>
</svg>