<?xml version="1.0" encoding="UTF-8"?>
<svg width="64px" height="64px" viewBox="0 0 64 64" version="1.1" xmlns="http://www.w3.org/2000/svg">
    <!-- Generator: Sketch 53.2 (72643) - https://sketchapp.com -->
    <title>Icons/Pin</title>
    <desc>Created with Sketch.</desc>
    <g id="Icons/Pin" stroke="none" stroke-width="1" fill="none" fill-rule="evenodd">
        <path d="M32.5000402,34 C28.3644544,34 25,30.6355012 25,26.4999598 C25,22.3644184 28.3645348,19 32.5000402,19 C36.6355456,19 40,22.3644988 40,26.5000402 C40,30.6355816 36.6355456,34 32.5000402,34 M32,11 C23.7289553,11 17,17.8235318 17,26.2107451 C17,36.6196211 30.4235306,51.9002569 30.9950493,52.5456795 C31.5318643,53.1519732 32.4691064,53.1509068 33.0049507,52.5456795 C33.5764694,51.9002569 47,36.6196211 47,26.2107451 C46.9998382,17.8235318 40.2709638,11 32,11" id="pin" fill="#000000"></path>
    </g>
</svg>
