<?xml version="1.0" encoding="UTF-8"?>
<svg width="64px" height="64px" viewBox="0 0 64 64" version="1.1" xmlns="http://www.w3.org/2000/svg" xmlns:xlink="http://www.w3.org/1999/xlink">
    <!-- Generator: Sketch 53.2 (72643) - https://sketchapp.com -->
    <title>Icons/SelectedPin</title>
    <desc>Created with Sketch.</desc>
    <g id="Icons/SelectedPin" stroke="none" stroke-width="1" fill="none" fill-rule="evenodd">
        <path d="M38.6595907,47.1354182 C43.6025825,47.3401511 48.1232342,47.7710113 51.7676649,48.3867944 C57.732753,49.3946886 61,50.6998863 61,53 C61,55.3001137 57.732753,56.6053114 51.7676649,57.6132056 C46.5363734,58.4971135 39.4996874,59 32,59 C24.5003126,59 17.4636266,58.4971135 12.2323351,57.6132056 C6.26724702,56.6053114 3,55.3001137 3,53 C3,50.6998863 6.26724702,49.3946886 12.2323351,48.3867944 C16.1145424,47.7308352 20.9910364,47.2847164 26.3131754,47.0982447 C22.1546535,41.4191176 17,33.0692515 17,26.5729057 C17,17.9859968 23.9532538,11 32.5,11 C41.0466626,11 47.9998328,17.9859968 48,26.5729057 C48,33.0834404 42.8228051,41.4556007 38.6595907,47.1354182 Z M36.6876585,49.7343246 C34.9717734,51.9208795 33.7079722,53.3451824 33.5384491,53.5348624 C32.9847433,54.1544999 32.0162598,54.1555917 31.4615509,53.5348624 C31.2913695,53.3444459 30.0183958,51.9098002 28.2923335,49.70882 C22.359288,49.8446988 16.9075208,50.3040413 12.7084332,51.0135423 C10.2818013,51.4235594 8.35844571,51.9045943 7.07935286,52.4155655 C6.56810056,52.6198002 6.18207837,52.8206102 5.93412449,53 C6.18207837,53.1793898 6.56810056,53.3801998 7.07935286,53.5844345 C8.35844571,54.0954057 10.2818013,54.5764406 12.7084332,54.9864577 C17.7694382,55.841593 24.6501597,56.3333333 32,56.3333333 C39.3498403,56.3333333 46.2305618,55.841593 51.2915668,54.9864577 C53.7181987,54.5764406 55.6415543,54.0954057 56.9206471,53.5844345 C57.4318994,53.3801998 57.8179216,53.1793898 58.0658755,53 C57.8179216,52.8206102 57.4318994,52.6198002 56.9206471,52.4155655 C55.6415543,51.9045943 53.7181987,51.4235594 51.2915668,51.0135423 C47.3247473,50.3432866 42.2399966,49.8962803 36.6876585,49.7343246 Z M32.5000415,34.3297872 C36.7733971,34.3297872 40.25,30.841291 40.25,26.5532332 C40.25,22.2651753 36.7733971,18.7765957 32.5000415,18.7765957 C28.226686,18.7765957 24.75,22.2650919 24.75,26.5531498 C24.75,30.8412077 28.2266029,34.3297872 32.5000415,34.3297872 Z" id="Combined-Shape" fill="#000000"></path>
    </g>
</svg>