<?xml version="1.0" encoding="UTF-8"?>
<svg width="420px" height="1080px" viewBox="0 0 420 1080" version="1.1" xmlns="http://www.w3.org/2000/svg" xmlns:xlink="http://www.w3.org/1999/xlink">
    <!-- Generator: Sketch 53.2 (72643) - https://sketchapp.com -->
    <title>Group 3</title>
    <desc>Created with Sketch.</desc>
    <defs>
        <linearGradient x1="50%" y1="100%" x2="50%" y2="3.061617e-15%" id="linearGradient-1">
            <stop stop-color="#302B5C" offset="0%"></stop>
            <stop stop-color="#CC5B54" offset="100%"></stop>
        </linearGradient>
        <linearGradient x1="50%" y1="100%" x2="50%" y2="3.061617e-15%" id="linearGradient-2">
            <stop stop-color="#302B5C" offset="0%"></stop>
            <stop stop-color="#3D3D72" offset="100%"></stop>
        </linearGradient>
    </defs>
    <g id="Symbols" stroke="none" stroke-width="1" fill="none" fill-rule="evenodd">
        <g id="Backgrounds/Sidebar" transform="translate(0.000000, 0.000000)">
            <g id="Group-3" transform="translate(0.000000, 0.000000)">
                <rect id="Rectangle" fill="#302B5C" x="1.13686838e-13" y="0" width="420" height="1080"></rect>
                <path d="M102,721 C187.382664,721 240.382664,747.774734 261,801.324201 C291.926004,881.648402 261,917.302511 281.505285,987.791096 C292.40698,1025.26656 338.571885,1056.00286 420,1080 L102,1077.13128 L102,721 Z" id="Rectangle" fill="url(#linearGradient-1)" transform="translate(261.000000, 900.500000) scale(-1, 1) translate(-261.000000, -900.500000) "></path>
                <path d="M-4.26325641e-14,1.87124933 C116,19.2045827 158,74.537916 126,167.871249 C78,307.871249 208.032726,258.802968 235.5,376.871249 C269,520.871249 90,511.889514 90,511.889514 C90,511.889514 61.6666667,511.889514 5,511.889514 L-4.26325641e-14,1.87124933 Z" id="Rectangle" fill="url(#linearGradient-2)" transform="translate(119.838583, 256.935625) scale(-1, 1) rotate(-180.000000) translate(-119.838583, -256.935625) "></path>
            </g>
        </g>
    </g>
</svg>